<svg width="74" height="78" viewBox="0 0 74 78" fill="none" xmlns="http://www.w3.org/2000/svg">
<path d="M24.6667 13H64.75V19.5H24.6667V13ZM13.875 21.125C12.6484 21.125 11.472 20.6114 10.6046 19.6971C9.73728 18.7829 9.25 17.5429 9.25 16.25C9.25 14.9571 9.73728 13.7171 10.6046 12.8029C11.472 11.8886 12.6484 11.375 13.875 11.375C15.1016 11.375 16.278 11.8886 17.1454 12.8029C18.0127 13.7171 18.5 14.9571 18.5 16.25C18.5 17.5429 18.0127 18.7829 17.1454 19.6971C16.278 20.6114 15.1016 21.125 13.875 21.125ZM13.875 43.875C12.6484 43.875 11.472 43.3614 10.6046 42.4471C9.73728 41.5329 9.25 40.2929 9.25 39C9.25 37.7071 9.73728 36.4671 10.6046 35.5529C11.472 34.6386 12.6484 34.125 13.875 34.125C15.1016 34.125 16.278 34.6386 17.1454 35.5529C18.0127 36.4671 18.5 37.7071 18.5 39C18.5 40.2929 18.0127 41.5329 17.1454 42.4471C16.278 43.3614 15.1016 43.875 13.875 43.875ZM13.875 66.3C12.6484 66.3 11.472 65.7864 10.6046 64.8721C9.73728 63.9579 9.25 62.7179 9.25 61.425C9.25 60.1321 9.73728 58.8921 10.6046 57.9779C11.472 57.0636 12.6484 56.55 13.875 56.55C15.1016 56.55 16.278 57.0636 17.1454 57.9779C18.0127 58.8921 18.5 60.1321 18.5 61.425C18.5 62.7179 18.0127 63.9579 17.1454 64.8721C16.278 65.7864 15.1016 66.3 13.875 66.3ZM24.6667 35.75H64.75V42.25H24.6667V35.75ZM24.6667 58.5H64.75V65H24.6667V58.5Z" fill="#FF4D00"/>
</svg>
