<svg width="107" height="38" viewBox="0 0 107 38" fill="none" xmlns="http://www.w3.org/2000/svg">
<mask id="mask0_2_206" style="mask-type:alpha" maskUnits="userSpaceOnUse" x="1" y="8" width="107" height="27">
<path d="M13.6342 28.3272C12.9252 28.3272 12.3435 28.1 11.889 27.6455C11.4346 27.1729 11.2073 26.5457 11.2073 25.764C11.2073 24.9641 11.6073 22.719 12.4071 19.0287C11.9345 18.9196 11.171 18.8651 10.1166 18.8651C9.06221 18.8651 8.05328 18.956 7.08979 19.1378C6.16266 23.3189 5.67183 26.1185 5.6173 27.5364C4.96285 27.9 3.58125 28.0818 1.4725 28.0818H1.19981C1.25435 27.2819 1.73609 24.8914 2.64504 20.9102C3.57216 16.929 4.1448 13.9386 4.36295 11.9389C4.36295 11.648 4.27205 11.3026 4.09026 10.9027C3.90847 10.4846 3.72669 10.1483 3.5449 9.89376L3.24494 9.51201L3.32675 9.10298C4.39931 8.79394 6.09904 8.63942 8.42594 8.63942C8.64409 9.00299 8.75317 9.59381 8.75317 10.4119C8.75317 11.2299 8.34414 13.4841 7.52609 17.1744H12.7889C13.4252 13.9386 13.7524 11.6299 13.7706 10.2483C13.7706 9.93921 13.7524 9.68471 13.716 9.48474C15.1703 8.92119 16.6337 8.63942 18.1062 8.63942C18.1608 8.74849 18.188 9.02117 18.188 9.45747C18.188 10.4573 17.7427 13.0296 16.8519 17.1744C15.9793 21.3192 15.543 23.9552 15.543 25.0823C15.543 25.5731 15.6248 25.8185 15.7884 25.8185C15.952 25.8185 16.5065 25.5822 17.4518 25.1095L17.9426 26.1185C16.3247 27.591 14.8886 28.3272 13.6342 28.3272ZM34.3218 11.039C34.8126 11.7662 35.1762 12.5388 35.4125 13.3569C35.6489 14.1567 35.767 15.0475 35.767 16.0292C35.767 17.0108 35.6579 18.0561 35.4398 19.165C35.2216 20.2739 34.8581 21.3829 34.3491 22.4918C33.84 23.6007 33.222 24.5824 32.4948 25.4368C31.7676 26.2912 30.8496 26.9911 29.7407 27.5364C28.6318 28.0636 27.4138 28.3272 26.0867 28.3272C24.1416 28.3272 22.6327 27.6364 21.5602 26.2548C20.4876 24.855 19.9513 23.0644 19.9513 20.8829C19.9513 18.6833 20.3331 16.6745 21.0966 14.8566C21.8783 13.0205 22.9872 11.5299 24.4234 10.3846C25.8777 9.22114 27.4865 8.63942 29.2499 8.63942C30.4133 8.63942 31.4313 8.85756 32.3039 9.29386C33.1765 9.73015 33.8491 10.3119 34.3218 11.039ZM26.9048 26.473C27.7592 26.473 28.4773 26.1003 29.059 25.355C29.6589 24.6096 30.1134 23.6371 30.4224 22.4372C31.0405 20.074 31.3495 17.6471 31.3495 15.1566C31.3495 12.048 30.5133 10.4937 28.8408 10.4937C27.8955 10.4937 27.0684 11.0572 26.3594 12.1843C25.0323 14.3112 24.3688 17.2562 24.3688 21.0193C24.3688 23.0735 24.487 24.346 24.7233 24.8369C24.8324 25.1095 24.9778 25.3913 25.1596 25.6822C25.4868 26.2094 26.0685 26.473 26.9048 26.473ZM57.4384 28.3272C56.7658 28.3272 56.2204 28.0909 55.8023 27.6182C55.3842 27.1274 55.1751 26.473 55.1751 25.6549C55.1751 24.8187 55.5478 22.7554 56.2931 19.465C57.0566 16.1746 57.4384 14.0749 57.4384 13.166C57.4384 12.257 57.0839 11.8026 56.3749 11.8026C55.3933 11.8026 54.3116 12.2388 53.13 13.1114C53.0027 14.0931 52.6301 15.811 52.012 18.2652C51.3939 20.7012 50.9758 22.51 50.7576 23.6916C50.5577 24.855 50.4577 25.7549 50.4577 26.3912C50.4577 27.0274 50.4668 27.4183 50.4849 27.5637C49.776 27.9273 48.5125 28.1091 46.6946 28.1091H46.1765C46.1765 26.582 46.6037 23.9825 47.4581 20.3103C48.3307 16.5654 48.767 14.2113 48.767 13.2478C48.767 12.2843 48.4307 11.8026 47.7581 11.8026C46.7764 11.8026 45.6312 12.2752 44.3223 13.2205C44.1223 14.2204 43.7496 15.8474 43.2043 18.1016C41.9863 23.2644 41.3773 26.4184 41.3773 27.5637C40.6683 27.9273 39.414 28.1091 37.6142 28.1091H37.0961C37.1689 27.291 37.6506 24.8914 38.5414 20.9102C39.4321 16.9108 39.9866 13.9204 40.2047 11.9389C40.2047 11.648 40.1048 11.3026 39.9048 10.9027C39.723 10.4846 39.5321 10.1483 39.3321 9.89376L39.0595 9.51201L39.1413 9.10298C40.1593 8.79394 41.9136 8.63942 44.4041 8.63942C44.6404 9.07571 44.7586 9.63017 44.7586 10.3028C44.7586 10.4482 44.7222 10.83 44.6495 11.4481C46.7401 9.57563 48.6125 8.63942 50.2668 8.63942C51.0121 8.63942 51.6393 8.89392 52.1483 9.40293C52.6573 9.91194 52.9845 10.5755 53.13 11.3935C55.2933 9.55745 57.1293 8.63942 58.6382 8.63942C59.5835 8.63942 60.347 8.94846 60.9287 9.56654C61.5105 10.1846 61.8013 11.0481 61.8013 12.157C61.8013 13.266 61.4105 15.3838 60.6288 18.5106C59.8653 21.6192 59.4835 23.7916 59.4835 25.0277C59.4835 25.5549 59.5744 25.8185 59.7562 25.8185C59.9198 25.8185 60.3652 25.6367 61.0924 25.2732L61.4741 25.1095L62.0195 26.1185C61.2378 26.7911 60.447 27.3274 59.6471 27.7273C58.8654 28.1273 58.1292 28.3272 57.4384 28.3272ZM42.1135 17.3653C42.0954 17.4017 42.0863 17.4471 42.0863 17.5017L42.1135 17.3653ZM69.1291 28.3272C67.8566 28.3272 66.6386 27.9636 65.4751 27.2365C64.8934 26.8729 64.4116 26.3639 64.0299 25.7095C63.6663 25.055 63.4845 24.3006 63.4845 23.4462C63.4845 21.8282 64.0208 20.5103 65.0934 19.4923C66.1659 18.4742 67.4566 17.8834 68.9655 17.7198C67.9475 17.4471 67.1294 16.9745 66.5113 16.3018C65.9114 15.6292 65.6115 14.7748 65.6115 13.7386C65.6115 12.1752 66.2205 10.9391 67.4384 10.0301C68.6746 9.10298 70.0835 8.63942 71.6651 8.63942C73.2466 8.63942 74.5646 8.97573 75.619 9.64835C76.6734 10.321 77.2005 11.2299 77.2005 12.3752C77.2005 12.7751 77.1278 13.166 76.9824 13.5477C76.8551 13.9295 76.7188 14.2022 76.5734 14.3658L76.3825 14.6385C75.8008 14.6385 75.1554 14.5385 74.4464 14.3385C73.7556 14.1385 73.2466 13.884 72.9194 13.575L73.2466 10.7664C72.9739 10.4937 72.5104 10.3573 71.8559 10.3573C71.2197 10.3573 70.7107 10.6936 70.3289 11.3663C69.9653 12.0207 69.7835 12.7751 69.7835 13.6295C69.7835 14.4839 69.8835 15.1293 70.0835 15.5656C70.2835 16.0019 70.5652 16.3382 70.9288 16.5745C71.4924 16.9381 72.1559 17.1926 72.9194 17.338L72.7013 18.8378C71.3924 18.8378 70.2562 19.2287 69.2927 20.0104C68.3292 20.7739 67.8475 21.7919 67.8475 23.0644C67.8475 23.8643 68.102 24.5278 68.611 25.055C69.1382 25.564 69.8108 25.8185 70.6289 25.8185C72.1195 25.8185 73.6466 25.0641 75.2099 23.5552L76.3007 24.5642C74.1919 27.0729 71.8014 28.3272 69.1291 28.3272ZM89.4617 26.6911C89.2436 27.2547 88.8982 27.7 88.4255 28.0273C87.9711 28.3545 87.4257 28.5181 86.7894 28.5181C86.1714 28.5181 85.2351 28.1363 83.9808 27.3728C82.7446 26.6093 81.7539 26.1185 81.0085 25.9003C80.5177 26.5548 79.9632 27.1001 79.3452 27.5364C78.7271 27.9727 78.2999 28.1909 78.0635 28.1909C77.8818 28.1909 77.5182 27.8 76.9728 27.0183C76.4274 26.2185 76.1548 25.6458 76.1548 25.3004C76.1548 25.1005 76.4365 24.8005 77.0001 24.4006C77.5818 24.0006 78.1908 23.7279 78.8271 23.5825C79.2815 22.4736 79.7542 20.8375 80.245 18.6742C80.7359 16.4927 81.1176 14.2476 81.3903 11.9389C81.3903 11.648 81.2903 11.3026 81.0903 10.9027C80.9086 10.4846 80.7177 10.1483 80.5177 9.89376L80.245 9.51201L80.3268 9.10298C81.4176 8.79394 83.2082 8.63942 85.6987 8.63942C85.935 9.03935 86.0532 9.64835 86.0532 10.4664C86.0532 11.2845 85.8169 12.5024 85.3442 14.1204C84.8716 15.7383 84.2171 17.6834 83.3809 19.9558C82.5628 22.21 82.0902 23.5462 81.9629 23.9643C82.0356 23.9825 82.2629 24.0461 82.6446 24.1552C83.0264 24.2642 83.2718 24.3369 83.3809 24.3733C83.5081 24.3915 83.7445 24.446 84.0899 24.5369C84.4353 24.6096 84.708 24.6642 84.9079 24.7005C85.1079 24.7187 85.3715 24.746 85.6987 24.7823C86.2623 24.8732 86.7894 24.9187 87.2803 24.9187C87.7893 24.9187 88.1529 24.7914 88.371 24.5369L89.1345 23.119L90.0344 23.3371C90.0344 24.5187 89.8435 25.6367 89.4617 26.6911ZM99.1307 32.9629C98.349 33.4537 97.6492 33.7627 97.0311 33.89C96.4312 34.0354 95.7767 34.1081 95.0677 34.1081C94.3588 34.1081 93.7498 33.8991 93.2408 33.481C92.7499 33.0628 92.5045 32.5084 92.5045 31.8176C92.5045 31.1268 92.7318 30.4996 93.1862 29.9361C93.6589 29.3725 94.2224 28.9271 94.8769 28.5999C96.2039 27.9091 97.4128 27.4546 98.5036 27.2365L99.2125 27.1001C99.2307 27.0274 99.3398 26.6638 99.5398 26.0094C99.7397 25.355 99.8852 24.846 99.9761 24.4824C97.6673 25.864 95.7676 26.5548 94.277 26.5548C93.3862 26.5548 92.6499 26.273 92.0682 25.7095C91.4865 25.1277 91.1956 24.3097 91.1956 23.2553C91.1956 22.1827 91.541 20.2649 92.2318 17.5017C92.9226 14.7203 93.268 12.866 93.268 11.9389C93.268 11.339 92.9953 10.6573 92.45 9.89376L92.1773 9.51201L92.2591 9.10298C93.3498 8.79394 95.0314 8.63942 97.3038 8.63942C97.5583 9.18478 97.6855 9.92103 97.6855 10.8482C97.6855 11.7753 97.3401 13.7386 96.6493 16.7381C95.9585 19.7195 95.6131 21.4465 95.6131 21.9191C95.6131 22.8826 95.9403 23.3644 96.5948 23.3644C97.8309 23.3644 99.1489 23.0099 100.549 22.3009C101.658 17.738 102.412 13.4296 102.812 9.37566C103.739 8.90301 105.012 8.66668 106.63 8.66668H107.148C107.148 9.63017 106.984 10.9663 106.657 12.6751C106.239 14.8384 105.593 18.1107 104.721 22.4918C104.339 24.4551 103.839 26.173 103.221 27.6455C102.603 29.0998 101.967 30.2269 101.312 31.0268C100.658 31.8267 99.9306 32.472 99.1307 32.9629ZM95.0677 32.2811C95.704 32.2811 96.3675 31.9267 97.0583 31.2177C97.7491 30.5269 98.3127 29.6997 98.749 28.7362C97.8946 28.8271 96.9311 29.1544 95.8585 29.7179C94.8042 30.2996 94.277 30.8905 94.277 31.4904C94.277 31.7085 94.3497 31.8903 94.4951 32.0357C94.6587 32.1993 94.8496 32.2811 95.0677 32.2811Z" fill="black"/>
</mask>
<g mask="url(#mask0_2_206)">
<rect y="-6.4126" width="107" height="44" fill="url(#paint0_linear_2_206)"/>
</g>
<defs>
<linearGradient id="paint0_linear_2_206" x1="14" y1="-6.4126" x2="97" y2="15.5874" gradientUnits="userSpaceOnUse">
<stop stop-color="#FF4D00"/>
<stop offset="0.598958" stop-color="#2549D3"/>
<stop offset="0.71875" stop-color="#FF5106"/>
<stop offset="0.979167" stop-color="#FC5005"/>
</linearGradient>
</defs>
</svg>
